<?xml version="1.0" standalone="no"?>
<!DOCTYPE svg PUBLIC "-//W3C//DTD SVG 20010904//EN"
 "http://www.w3.org/TR/2001/REC-SVG-20010904/DTD/svg10.dtd">
<svg version="1.0" xmlns="http://www.w3.org/2000/svg"
 width="640.000000pt" height="363.000000pt" viewBox="0 0 640.000000 363.000000"
 preserveAspectRatio="xMidYMid meet">
<metadata>
Created by potrace 1.13, written by Peter Selinger 2001-2015
</metadata>
<g transform="translate(0.000000,363.000000) scale(0.100000,-0.100000)"
fill="#000000" stroke="none">
<path d="M2283 3483 c-7 -2 -13 -10 -13 -17 0 -10 -13 -10 -62 1 -47 9 -76 10
-115 2 -28 -5 -98 -10 -155 -11 -75 0 -111 -5 -133 -16 -16 -9 -43 -17 -60
-18 -16 -1 -84 -13 -150 -27 -66 -14 -136 -28 -156 -32 -21 -3 -42 -12 -49
-20 -7 -8 -29 -15 -49 -15 -20 0 -45 -7 -55 -15 -11 -8 -34 -15 -51 -15 -19 0
-39 -8 -49 -19 -10 -11 -32 -23 -50 -26 -120 -24 -332 -113 -391 -164 -11 -9
-45 -28 -75 -41 -71 -31 -155 -91 -254 -183 -91 -83 -120 -123 -141 -192 -18
-61 -7 -110 32 -146 45 -41 140 -89 176 -89 19 0 37 -3 41 -7 20 -20 107 -40
321 -73 28 -4 65 -12 83 -18 18 -6 47 -8 66 -5 22 3 59 -4 107 -20 41 -14 94
-28 119 -32 84 -11 275 -48 295 -56 11 -5 59 -22 107 -38 102 -35 170 -78 188
-120 17 -43 -7 -92 -79 -156 -30 -27 -75 -69 -98 -92 -77 -76 -221 -145 -335
-164 -32 -5 -111 -27 -175 -50 -65 -22 -132 -44 -148 -48 -17 -4 -39 -12 -50
-18 -32 -16 -117 -44 -160 -52 -22 -5 -58 -15 -80 -24 -57 -21 -173 -55 -218
-63 -20 -3 -39 -10 -42 -14 -3 -5 -49 -23 -103 -41 -123 -40 -169 -63 -177
-89 -17 -54 33 -88 145 -100 98 -11 515 55 638 100 29 11 85 27 125 36 39 9
90 27 112 39 22 13 56 26 75 30 19 4 53 18 76 31 22 13 65 32 96 43 30 10 104
41 164 69 60 28 129 56 154 62 25 7 59 20 75 30 50 30 160 70 236 86 41 8 94
26 119 39 25 13 65 26 89 30 25 3 65 16 90 29 25 12 64 26 87 29 22 4 86 29
141 57 89 44 103 55 113 85 6 18 17 39 25 45 21 18 6 40 -27 40 -17 0 -134
-34 -260 -76 -184 -61 -232 -73 -243 -64 -20 17 -19 24 11 59 14 17 22 35 19
41 -4 6 -2 17 4 24 6 7 15 34 20 60 17 93 -32 170 -144 225 -68 34 -113 40
-158 22 -37 -14 -35 -15 -29 15 6 32 -10 44 -59 44 -20 0 -68 7 -107 16 -50
11 -76 13 -89 6 -13 -8 -26 -6 -49 8 -19 12 -58 22 -105 26 -41 3 -86 10 -100
15 -14 6 -66 12 -115 14 -49 2 -124 9 -167 14 -43 6 -105 9 -138 7 -32 -2 -62
0 -65 5 -8 13 -68 11 -82 -3 -9 -9 -16 -8 -30 5 -10 9 -49 24 -88 33 -138 34
-177 49 -186 73 -7 20 0 30 50 77 92 86 103 95 164 132 32 19 61 39 64 43 3 5
13 9 23 9 10 0 29 9 43 19 15 12 33 18 46 14 14 -3 32 3 52 21 17 14 60 34 95
45 35 11 78 27 94 36 17 8 39 15 51 15 34 0 80 29 80 49 0 26 18 30 63 15 34
-12 44 -11 133 21 52 19 107 35 121 35 14 0 62 9 107 19 256 62 635 84 806 48
41 -8 106 -19 145 -23 73 -7 100 -22 188 -103 37 -35 49 -71 23 -71 -18 0 -63
-36 -76 -61 -9 -16 -5 -25 27 -54 44 -40 81 -45 156 -19 77 26 88 48 83 170
-6 124 -25 168 -113 255 -32 31 -64 64 -71 73 -10 12 -22 15 -47 10 -26 -5
-42 0 -71 20 -24 16 -52 26 -74 26 -20 0 -42 6 -49 13 -6 6 -33 13 -59 14
-166 7 -199 10 -219 21 -22 12 -48 14 -70 5z"/>
<path d="M5483 3483 c-7 -2 -13 -10 -13 -17 0 -10 -13 -10 -62 1 -47 9 -76 10
-115 2 -28 -5 -98 -10 -155 -11 -81 0 -111 -4 -141 -20 -21 -10 -41 -17 -46
-14 -4 3 -68 -8 -142 -24 -74 -15 -150 -31 -170 -34 -21 -4 -42 -13 -49 -21
-7 -8 -29 -15 -49 -15 -20 0 -45 -7 -55 -15 -11 -8 -34 -15 -51 -15 -19 0 -39
-8 -49 -19 -10 -11 -32 -23 -50 -26 -120 -24 -332 -113 -391 -164 -11 -9 -45
-28 -75 -41 -75 -33 -155 -90 -256 -184 -149 -139 -188 -253 -112 -333 35 -38
142 -93 180 -93 19 0 38 -3 42 -7 20 -20 107 -40 321 -73 28 -4 65 -12 83 -18
18 -6 47 -8 66 -5 22 3 59 -4 107 -20 41 -14 94 -28 119 -32 84 -11 275 -48
295 -56 11 -5 60 -23 109 -39 105 -36 168 -77 186 -119 17 -43 -7 -91 -79
-156 -30 -27 -74 -69 -97 -91 -52 -50 -162 -115 -227 -133 -26 -8 -50 -18 -53
-22 -3 -5 -20 -9 -38 -9 -45 0 -308 -80 -379 -116 -16 -8 -37 -14 -48 -14 -11
0 -37 -9 -59 -20 -22 -11 -48 -20 -59 -20 -11 0 -73 -17 -138 -39 -65 -21
-134 -42 -154 -45 -20 -3 -53 -15 -75 -25 -21 -10 -75 -30 -119 -45 -131 -43
-159 -68 -139 -121 9 -24 70 -47 144 -55 99 -11 496 52 635 100 33 11 91 28
128 36 38 9 94 29 124 45 30 16 64 29 74 29 11 0 43 13 72 29 28 16 70 34 92
41 22 7 87 35 145 62 57 27 129 56 160 64 30 9 69 24 85 34 51 31 160 70 237
86 40 8 91 26 113 38 22 13 62 26 88 30 27 3 70 16 95 29 26 13 64 26 84 30
20 3 84 29 143 57 92 45 106 55 112 80 3 16 13 36 23 45 25 23 14 45 -22 45
-17 0 -134 -34 -260 -76 -184 -61 -232 -73 -243 -64 -21 18 -19 33 10 60 17
16 23 30 19 43 -3 11 -1 23 5 27 14 8 32 108 21 115 -4 3 -10 17 -13 33 -12
59 -85 117 -191 153 -43 15 -54 15 -89 3 -22 -8 -41 -14 -42 -14 -1 0 0 12 3
26 6 32 -10 44 -60 44 -20 0 -67 7 -104 16 -48 11 -74 12 -90 6 -16 -8 -28 -6
-49 8 -18 12 -56 21 -104 25 -42 3 -88 11 -102 16 -14 6 -66 12 -115 14 -49 2
-124 9 -167 14 -43 6 -105 9 -138 7 -32 -2 -62 0 -65 5 -7 12 -65 11 -84 -1
-10 -6 -20 -4 -30 5 -9 8 -47 22 -86 31 -162 40 -175 45 -187 71 -10 23 -7 29
44 76 88 82 120 108 176 139 29 17 56 34 59 39 3 5 13 9 23 9 10 0 29 9 43 19
15 12 33 18 46 14 14 -3 32 3 52 21 17 14 59 34 93 45 34 10 76 26 92 35 17 9
40 16 53 16 36 0 82 28 82 50 0 22 31 27 73 11 20 -8 46 -2 122 25 52 19 107
34 121 34 15 0 63 9 108 19 256 61 623 84 801 48 44 -8 112 -18 150 -22 53 -6
78 -14 103 -34 81 -64 122 -105 122 -120 0 -9 -15 -23 -32 -31 -18 -8 -41 -28
-52 -43 l-21 -28 40 -34 c46 -40 85 -44 158 -19 71 24 85 49 84 145 0 44 -4
82 -8 85 -5 2 -6 11 -3 19 10 26 -39 109 -100 171 -34 34 -67 69 -74 78 -10
12 -22 15 -47 10 -26 -5 -42 0 -71 20 -24 16 -52 26 -74 26 -20 0 -42 6 -49
13 -6 6 -33 13 -59 14 -166 7 -199 10 -219 21 -22 12 -48 14 -70 5z"/>
</g>
</svg>
